<?xml version="1.0" encoding="iso-8859-1"?>
<!-- Generator: Adobe Illustrator 16.0.0, SVG Export Plug-In . SVG Version: 6.00 Build 0)  -->
<!DOCTYPE svg PUBLIC "-//W3C//DTD SVG 1.1//EN" "http://www.w3.org/Graphics/SVG/1.1/DTD/svg11.dtd">
<svg version="1.1" id="Capa_1" xmlns="http://www.w3.org/2000/svg" xmlns:xlink="http://www.w3.org/1999/xlink" x="0px" y="0px"
	 width="325.696px" height="325.696px" viewBox="0 0 325.696 325.696" style="enable-background:new 0 0 325.696 325.696;"
	 xml:space="preserve">
	<g class="icon">
		<path d="M277.588,74.292c1.898,2.363,4.766,3.737,7.797,3.737h22.588c2.66,0,5.211-1.061,7.088-2.946
			c1.877-1.885,2.926-4.441,2.912-7.102l0.035-55.064c-0.064-5.479-4.523-9.888-10-9.888H10c-5.523,0-10,4.478-10,10v55
			c0,5.522,4.477,10,10,10h22.596c3.039,0,5.912-1.381,7.809-3.753L57.403,53.03h71.592v259.635c0,5.521,4.477,10,10,10h40
			c5.521,0,10-4.479,10-10V53.031h71.513L277.588,74.292z"/>
		<path d="M245.502,274.937c2.627,3.408,7.144,4.754,11.207,3.342l12.756-4.438l-0.002,38.723c0,2.652,1.053,5.197,2.928,7.072
			s4.421,2.93,7.072,2.93h9.992c5.521,0,10-4.479,10-10v-38.725l12.756,4.438c4.064,1.416,8.578,0.066,11.205-3.342
			c2.627-3.41,2.779-8.117,0.375-11.688l-31.035-46.113c-1.858-2.762-4.969-4.418-8.297-4.418s-6.438,1.656-8.295,4.418
			l-31.037,46.113C242.725,266.82,242.875,271.527,245.502,274.937z"/>
	</g>
</svg>
